<?xml version="1.0" encoding="utf-8"?>
<!-- Generator: Adobe Illustrator 26.5.2, SVG Export Plug-In . SVG Version: 6.00 Build 0)  -->
<svg version="1.1" id="Layer_1" xmlns="http://www.w3.org/2000/svg" xmlns:xlink="http://www.w3.org/1999/xlink" x="0px" y="0px"
	 viewBox="0 0 800 800" style="enable-background:new 0 0 800 800;" xml:space="preserve">
<style type="text/css">
	.st0{fill:#F4F4F5;}
</style>
<path class="st0" d="M-60.6,526.2c4.5,3.3,14.8,9.6,26.4,9c15.6-0.9,21.3-7.2,30.4-17.4c9.1-10.2,14.8-16.5,13.9-32.1
	C9.4,474.1,2,464.6-1.8,460.5c-1.4-1.5-3.3-2.2-5.3-2.1s-3.9,1-5,2.6c-3.3,4.7-9.6,15.5-8.9,29.5c0.7,12.5,4,15.5,4,15.5
	s-3.3-3-15.8-2.3c-13.9,0.8-24.1,8.3-28.3,12.1c-1.5,1.3-2.2,3.3-2.1,5.3S-62.2,525-60.6,526.2z M-7.6,563.2
	c0.9,15.6,8.7,29.7,21,38.7l22.3-25c2.3-2.6,6.3-2.8,8.8-0.5c2.6,2.3,2.8,6.3,0.5,8.8l-20.4,22.8l0,0l106.5,42.4
	c3.6,1.4,7.8,0.5,10.5-2.5s3.1-7.2,1.3-10.7l-27.3-51.3l-19.2,21.5c-2.3,2.6-6.3,2.8-8.8,0.5s-2.8-6.3-0.5-8.8l22.2-24.9l-20.3-38.1
	c-9.4-17.7-28.2-28.3-48.2-27.2C12.5,510.6-9.2,534.9-7.6,563.2z"/>
<path class="st0" d="M739.4,526.2c4.5,3.3,14.8,9.6,26.4,9c15.6-0.9,21.3-7.2,30.4-17.4c9.1-10.2,14.8-16.5,13.9-32.1
	c-0.6-11.6-8.1-21.1-11.9-25.2c-1.4-1.5-3.3-2.2-5.3-2.1s-3.9,1-5,2.6c-3.3,4.7-9.6,15.5-8.9,29.5c0.7,12.5,4,15.5,4,15.5
	s-3.3-3-15.8-2.3c-13.9,0.8-24.1,8.3-28.3,12.1c-1.5,1.3-2.2,3.3-2.1,5.3S737.8,525,739.4,526.2z M792.4,563.2
	c0.9,15.6,8.7,29.7,21,38.7l22.3-25c2.3-2.6,6.3-2.8,8.8-0.5c2.6,2.3,2.8,6.3,0.5,8.8l-20.4,22.8l0,0l106.5,42.4
	c3.6,1.4,7.8,0.5,10.5-2.5c2.7-2.9,3.1-7.2,1.3-10.7l-27.3-51.3l-19.2,21.5c-2.3,2.6-6.3,2.8-8.8,0.5c-2.6-2.3-2.8-6.3-0.5-8.8
	l22.2-24.9l-20.3-38.1c-9.4-17.7-28.2-28.3-48.2-27.2C812.5,510.6,790.8,534.9,792.4,563.2z"/>
<path class="st0" d="M157.4,486.5c-1.1-2.1-2-4.5-2.4-7l-13.5-70.2c-0.3-1.4-0.4-2.9-0.4-4.3l-42.2,44.3c-5.2,5.5-5.1,14.2,1.1,18.7
	c13.6,9.8,29.9,16.2,47.7,18C150.9,486.4,154.2,486.5,157.4,486.5z M177.8,375.1c1.4,0.3,2.8,0.7,4.1,1.2l66.1,27.3
	c2.3,1,4.5,2.2,6.3,3.8c0.6-3.2,1.1-6.4,1.5-9.7c1.8-17.8-1.3-35.1-8.1-50.4c-3.1-6.9-11.7-8.8-18.1-4.8L177.8,375.1z M167.2,481.5
	L167.2,481.5c-0.6-1.1-1-2.3-1.3-3.6C166.1,479.2,166.6,480.3,167.2,481.5L167.2,481.5z M90.9,441.8l29.2-30.6l-29.4-8
	c-0.5-0.2-1.1-0.2-1.7-0.3c-5.6-0.6-10.6,3.5-11.1,9.1l-0.2,1.8c-0.1,1.4,0,2.9,0.4,4.2c2.6,8.9,6.5,17.4,11.7,25
	C90.1,442.6,90.5,442.2,90.9,441.8L90.9,441.8z M188,355.7l35.7-22.4c0.5-0.3,1-0.6,1.5-0.9c-6.4-6.6-13.9-12.2-22.1-16.5
	c-1.3-0.6-2.7-1.1-4.1-1.2l-1.8-0.2c-5.6-0.6-10.6,3.5-11.1,9.1c-0.1,0.5-0.1,1.1,0,1.7L188,355.7z M247.4,415.9L247.4,415.9
	c-0.7-0.6-1.5-1.1-2.4-1.5c-0.4-0.2-0.8-0.4-1.3-0.6l-66.1-27.3c-3.7-1.6-8-0.9-11.1,1.6l-10.6,8.6c-3.1,2.5-4.6,6.6-3.8,10.6
	l13.5,70.2c1.2,6.3,6.4,11,12.7,11.7c1.6,0.2,3.2,0.1,4.7-0.3c29.8-7.6,54.8-28,68.2-55.7c0.7-1.4,1.1-3,1.3-4.5
	C253.2,423.7,251.1,419,247.4,415.9L247.4,415.9z"/>
<path class="st0" d="M167.2,212.1c3.9,4.8,11,5.5,15.8,1.6l116.8-95.1c4.8-3.9,5.5-11,1.6-15.8c-0.5-0.6-1-1.1-1.5-1.5
	c-6.7-5-52.2-35.9-105.3,7.4s-32.1,94.1-28.6,101.6C166.3,211,166.7,211.6,167.2,212.1L167.2,212.1z M175.7,163.9
	c2.6-2.2,6.5-1.8,8.7,0.9c2.2,2.6,1.8,6.5-0.9,8.7s-6.5,1.8-8.7-0.9S173.1,166,175.7,163.9z M251.5,110.1c-2.2-2.6-1.8-6.5,0.9-8.7
	s6.5-1.8,8.7,0.9s1.8,6.5-0.9,8.7C257.6,113.2,253.7,112.8,251.5,110.1z M206.3,123.1c2.6-2.2,6.5-1.8,8.7,0.9
	c2.2,2.6,1.8,6.5-0.9,8.7s-6.5,1.8-8.7-0.9S203.6,125.2,206.3,123.1z M217.2,273.6l3.9,4.8c8.6,10.6,24.2,12.2,34.8,3.6l95.9-78.1
	c10.6-8.6,12.2-24.2,3.6-34.8l-3.9-4.8c-2.1-2.6-6.1-3-8.7-0.9L218.1,264.9C215.4,267.1,215,271,217.2,273.6z M219.9,247.5
	c7.4-6,10.4-14.3,12.2-19.4c0.1-0.4,0.3-0.7,0.4-1.1c2.1-5.8,3.4-8.5,6-10.6c2.3-1.9,4.3-2.3,10.3-2.9l0.1,0
	c5.9-0.7,14.9-1.7,23.8-8.9c8.9-7.2,11.5-15.6,13.2-21.1l0.1-0.3c1.6-5.1,2.4-7.2,5.3-9.6c3.1-2.6,6.3-3.3,11.8-4
	c0.4-0.1,0.8-0.1,1.3-0.2c5.1-0.7,13.7-1.7,21.1-7.7c6.4-5.2,10.2-11,12.3-15.7c1-2.3,1.7-4.4,2.1-5.9c0.2-0.8,0.3-1.5,0.4-2
	c0-0.3,0.1-0.5,0.1-0.7l0-0.3l0-0.1l0-0.1l0,0l0,0c0,0,0,0-12.3-1.3l12.3,1.3c0.7-6.8-4.3-12.9-11.1-13.6
	c-6.7-0.7-12.6,4.1-13.5,10.6l0,0.1c-0.1,0.3-0.3,0.9-0.6,1.7c-0.7,1.6-2.2,4.1-5.4,6.7c-1.6,1.3-3.2,1.6-10,2.5
	c-6.1,0.8-15.3,2.1-24.2,9.3c-8.9,7.2-11.5,15.6-13.2,21.1l-0.1,0.3c-1.6,5.1-2.4,7.2-5.3,9.6c-3,2.4-5.6,3-11.1,3.6l-0.8,0.1
	c-5.4,0.6-14.1,1.5-22.4,8.2c-8.3,6.8-11.5,15.5-13.5,21.1l-0.1,0.2c-2.3,6.4-3.2,8.4-4.9,9.7c-3.1,2.6-5.9,3.5-7.6,3.9
	c-0.9,0.2-1.5,0.3-1.8,0.3l-0.1,0c-6.6-0.5-12.5,4.4-13.2,11.1c-0.7,6.8,4.3,12.9,11.1,13.6l1.2-12.2c-1.3,12.1-1.3,12.1-1.3,12.1
	l0,0l0,0l0.1,0l0.1,0l0.3,0c0.2,0,0.4,0,0.7,0c0.5,0,1.2,0,2,0c1.6-0.1,3.8-0.3,6.2-0.8C207,255.3,213.4,252.8,219.9,247.5z"/>
<path class="st0" d="M743.1-85.2c-16.6,9.5-22.3,30.6-12.8,47.2l4.7,8.2c1.7,3,5.6,4.1,8.6,2.3l8.2-4.7
	c16.6-9.5,22.3-30.6,12.8-47.2l-4.7-8.2c-1.7-3-5.6-4.1-8.6-2.3L743.1-85.2z M691.7-43.4c-3.3-0.9-6.8,1.1-7.7,4.4l-1.7,6.1
	c-5.5,20.1,6.4,40.8,26.5,46.3l5.6,1.5l-4.4,16.3c-6.5-8.6-15.8-15.3-27-18.4l-6.1-1.6c-3.3-0.9-6.8,1.1-7.7,4.4l-1.6,6.1
	C662,41.8,673.9,62.5,694,68l5.6,1.5l-4.4,16.3c-6.5-8.6-15.8-15.3-27-18.4l-6.1-1.7c-3.3-0.9-6.8,1.1-7.7,4.4l-1.6,6.1
	c-5.5,20.1,6.4,40.8,26.5,46.3l5.6,1.5l-10,36.9c-1.8,6.7,2.1,13.6,8.8,15.4c6.7,1.8,13.6-2.1,15.4-8.8l10-36.9l6.5,1.8
	c20.1,5.5,40.8-6.4,46.3-26.5l1.6-6.1c0.9-3.3-1.1-6.8-4.4-7.7l-6.1-1.6c-11.7-3.2-23.6-1.9-33.8,2.7l4.7-17.1l6.5,1.8
	c20.1,5.5,40.8-6.4,46.3-26.5l1.6-6.1c0.9-3.3-1.1-6.8-4.4-7.7l-6.1-1.6c-11.7-3.2-23.6-1.9-33.8,2.7l4.7-17.1l6.5,1.8
	c20.1,5.5,40.8-6.4,46.3-26.5l1.6-6.1c0.9-3.3-1.1-6.8-4.4-7.7l-6.1-1.7c-18.3-5-36.9,0.8-49.3,13.5c-4.2-17.2-17.4-31.6-35.6-36.6
	L691.7-43.4z"/>
<path class="st0" d="M743.1,714.8c-16.6,9.5-22.3,30.6-12.8,47.2l4.7,8.2c1.7,3,5.6,4.1,8.6,2.3l8.2-4.7
	c16.6-9.5,22.3-30.6,12.8-47.2l-4.7-8.2c-1.7-3-5.6-4.1-8.6-2.3L743.1,714.8z M691.7,756.6c-3.3-0.9-6.8,1.1-7.7,4.4l-1.7,6.1
	c-5.5,20.1,6.4,40.8,26.5,46.3l5.6,1.5l-4.4,16.3c-6.5-8.6-15.8-15.3-27-18.4l-6.1-1.6c-3.3-0.9-6.8,1.1-7.7,4.4l-1.6,6.1
	c-5.5,20.1,6.4,40.8,26.5,46.3l5.6,1.5l-4.4,16.3c-6.5-8.6-15.8-15.3-27-18.4l-6.1-1.7c-3.3-0.9-6.8,1.1-7.7,4.4l-1.6,6.1
	c-5.5,20.1,6.4,40.8,26.5,46.3l5.6,1.5l-10,36.9c-1.8,6.7,2.1,13.6,8.8,15.4s13.6-2.1,15.4-8.8l10-36.9l6.5,1.8
	c20.1,5.5,40.8-6.4,46.3-26.5l1.6-6.1c0.9-3.3-1.1-6.8-4.4-7.7l-6.1-1.6c-11.7-3.2-23.6-1.9-33.8,2.7l4.7-17.1l6.5,1.8
	c20.1,5.5,40.8-6.4,46.3-26.5l1.6-6.1c0.9-3.3-1.1-6.8-4.4-7.7l-6.1-1.6c-11.7-3.2-23.6-1.9-33.8,2.7l4.7-17.1l6.5,1.8
	c20.1,5.5,40.8-6.4,46.3-26.5l1.6-6.1c0.9-3.3-1.1-6.8-4.4-7.7l-6.1-1.7c-18.3-5-36.9,0.8-49.3,13.5c-4.2-17.2-17.4-31.6-35.6-36.6
	L691.7,756.6z"/>
<path class="st0" d="M545.2,119c1.1,5.5,2.1,12.4-1.8,16.5l-6.8,7.1c-12.7-4.9-25.5-6.6-35.5-4.7c-28.1,5.4-66,45.9-58.3,86
	c6.2,32.1,46.2,24.4,78.3,18.2c32.1-6.2,72.1-13.9,66-45.9c-3-15.8-12.7-29-25-38.9c-0.1,0.1-0.2,0.1-0.2,0.2l-6.1,6.4
	c-1.8,1.9-3.1,4.5-3.9,8.1c-0.9,3.7-1.3,7.7-1.6,12.3l0,0.3c-0.7,7.3-3.5,14.4-8.5,20.4c-13.1,15.5-36.2,17.5-51.8,4.4
	c-4.3-3.6-7.6-8-9.8-12.8c-1-2.2,0.5-4.7,2.9-5.2c2-0.4,3.9,0.7,4.9,2.6c1.7,3.4,4.1,6.6,7.2,9.3c6.6,5.6,15,7.6,22.9,6.4
	c6.5-1,12.7-4.3,17.3-9.8c3.9-4.7,6.1-10.2,6.6-15.9l0.1-0.5c0.8-8.9,1.6-18.6,7.8-25l5.6-5.8l0,0l0.5-0.6c4-4.1,10.3-4.7,16.5-5.3
	c2.4-0.2,4.7-0.4,6.9-0.9c7.7-1.5,12.8-9,11.3-16.7c-1.5-7.7-9-12.8-16.7-11.3c-0.3,0.1-0.6-0.2-0.5-0.5c0.1-1.2,0-2.3-0.2-3.5
	c-1.5-7.7-9-12.8-16.7-11.3S543.6,111.2,545.2,119L545.2,119z"/>
<path class="st0" d="M506.4,644.9c2.3,4,1.1,9.1-2.9,11.4l-3,1.8c-11.8,7.1-26,7.7-38.1,2.4c-9.6,9.6-22.7,15.6-37.3,16.1
	c-6.4,0.2-12.6-0.7-18.4-2.5c-6.1-1.9-6-9.7-0.4-12.8l8-4.3c2.8-1.5,4.5-4.5,4.4-7.6l-0.8-25.4c-0.1-4.6,3.4-8.4,8.1-8.6l27.7-0.9
	c4.6-0.1,8.2-4,8.1-8.6l-0.2-5.9c-0.2-7.4,8-10.7,11.3-4.1c3.6,7,5.7,15,6,23.4c0.3,9.8-1.9,19.1-6.1,27.2
	c6.4,1.7,13.4,0.9,19.3-2.7l3-1.8C498.9,639.7,504,640.9,506.4,644.9L506.4,644.9z M384.7,559.6l65.4,30.1l0.4,13.9l-27.7,0.9
	c-9.2,0.3-16.4,8-16.1,17.2l0.9,26.4l-16.3,8.8c-38.4-26.5-63.4-70.1-65-119l-0.7-20.4c-0.3-8.5,6.4-15.6,14.9-15.9
	c7.2-0.2,13.6,4.6,15.4,11.6l4.4,17.1C363.6,543.2,372.6,554,384.7,559.6L384.7,559.6z"/>
<path class="st0" d="M465.4,337.8c-0.1-5.4-3.6-10.1-8.6-11.9c-5.1-1.8-10.7-0.3-14.2,3.8l-13,15.3c-7.7-3.9-15.6-6.8-23.1-8.8
	c-7.5-2-14.9-3.2-21.7-3.9l-6-43.2c-0.8-5.8-5.4-10.4-11.3-11.1c-5.8-0.7-11.4,2.6-13.6,8l-14,34.6l-37,5.5
	c-5.8,0.9-10.3,5.5-11,11.4c-0.7,5.8,2.7,11.4,8.1,13.5l40.6,16c-1,6.8-1.5,14.3-1.4,22c0.2,7.8,1.1,16.1,3.1,24.6l-17.9,9.1
	c-4.8,2.4-7.6,7.6-7,12.9c0.6,5.3,4.3,9.8,9.6,11.2l38,10.1c15,16.5,34,25.5,51.5,30.2c19.2,5.1,37.4,5.2,48.9,3.6
	c4.6-0.6,8.5-3.7,10.2-8c4.3-10.8,8.5-28.6,8-48.4c-0.4-18.1-4.8-38.7-17.2-57.1L465.4,337.8z M423.4,426.9
	c5.6-4.4,13.8-3.5,18.2,2.2c4.4,5.6,3.5,13.8-2.2,18.2c-5.6,4.4-13.8,3.5-18.2-2.2C416.8,439.5,417.8,431.3,423.4,426.9z"/>
<path class="st0" d="M197.4,597.3c-13.5-9.3-19.1-25.9-15-40.9l-16.9-4.3c-0.9-0.2-1.7-0.6-2.5-1.2c-3.6-2.5-4.6-7.5-2.1-11.1
	l12.2-17.8c2.5-3.6,7.5-4.6,11.1-2.1c0.8,0.5,1.4,1.2,2,1.9l10.1,14.2c12.5-9.2,30-10,43.5-0.7c62.7,43.1,78.6,128.8,35.6,191.5
	c-9.3,13.5-25.9,19.1-40.9,15l-4.3,16.9c-0.2,0.9-0.6,1.7-1.2,2.5c-2.5,3.6-7.5,4.6-11.1,2.1l-17.8-12.2c-3.6-2.5-4.6-7.5-2.1-11.1
	c0.5-0.8,1.2-1.4,1.9-2l14.2-10.1c-9.2-12.5-10-30-0.7-43.5C233.1,655.8,225.9,616.8,197.4,597.3z M215.1,571.5
	c-2.8-1.9-6.8-1.2-8.7,1.6s-1.2,6.8,1.6,8.7c37.1,25.4,46.5,76.1,21,113.2c-1.9,2.8-1.2,6.8,1.6,8.7c2.8,1.9,6.8,1.2,8.7-1.6
	C268.7,659.3,257.8,600.8,215.1,571.5z"/>
<path class="st0" d="M86.1-91.3c-9-0.6-16.6,5.5-18.8,13.7L62.6-60c0.2,0,0.4,0,0.6,0C133.2-60,190-3.2,190,66.8c0,0.2,0,0.4,0,0.6
	l17.6-4.7c8.2-2.2,14.4-9.8,13.7-18.8C216.3-28.5,158.5-86.3,86.1-91.3z M177.2,70.8c0-1.3,0.1-2.7,0.1-4
	c0-63-51.1-114.1-114.1-114.1c-1.3,0-2.7,0-4,0.1L19,103.2c-0.6,2.2,0,4.5,1.6,6.1s3.9,2.2,6.1,1.6L177.2,70.8z M88.6-9.3
	c7,0,12.7,5.7,12.7,12.7s-5.7,12.7-12.7,12.7S75.9,10.4,75.9,3.4S81.6-9.3,88.6-9.3z M113.9,41.4c0-7,5.7-12.7,12.7-12.7
	s12.7,5.7,12.7,12.7s-5.7,12.7-12.7,12.7S113.9,48.4,113.9,41.4z M56.9,60.4c0-7,5.7-12.7,12.7-12.7s12.7,5.7,12.7,12.7
	s-5.7,12.7-12.7,12.7S56.9,67.5,56.9,60.4z"/>
<path class="st0" d="M86.1,708.7c-9-0.6-16.6,5.5-18.8,13.7L62.6,740c0.2,0,0.4,0,0.6,0c70,0,126.8,56.8,126.8,126.8
	c0,0.2,0,0.4,0,0.6l17.6-4.7c8.2-2.2,14.4-9.8,13.7-18.8C216.3,771.5,158.5,713.7,86.1,708.7z M177.2,870.8c0-1.3,0.1-2.7,0.1-4
	c0-63-51.1-114.1-114.1-114.1c-1.3,0-2.7,0-4,0.1L19,903.2c-0.6,2.2,0,4.5,1.6,6.1s3.9,2.2,6.1,1.6L177.2,870.8z M88.6,790.7
	c7,0,12.7,5.7,12.7,12.7c0,7-5.7,12.7-12.7,12.7s-12.7-5.7-12.7-12.7C75.9,796.4,81.6,790.7,88.6,790.7z M113.9,841.4
	c0-7,5.7-12.7,12.7-12.7s12.7,5.7,12.7,12.7c0,7-5.7,12.7-12.7,12.7S113.9,848.4,113.9,841.4z M56.9,860.4c0-7,5.7-12.7,12.7-12.7
	s12.7,5.7,12.7,12.7c0,7-5.7,12.7-12.7,12.7S56.9,867.5,56.9,860.4z"/>
<path class="st0" d="M692.9,386.2c-2.5-1.5-3.8-4.5-3.3-7.4c6.7-39.4-10.9-80.5-47.3-102.1s-80.9-17.3-112.3,7.4
	c-2.3,1.8-5.5,2.1-8.1,0.6c-5.9-3.5-13.5-1.6-17,4.3c-3.4,5.7-1.7,13.1,3.9,16.8c6,3.3,13.1,4.6,19.1,4.9c3.1,0.2,5.7,0.1,7.6,0
	c0.9-0.1,1.7-0.1,2.1-0.2c0.2,0,0.4-0.1,0.5,0l0.1,0l0,0l6.8,4.2l0,0l0,0.1c0,0.1,0.1,0.2,0.1,0.4c0.2,0.4,0.4,1,0.8,1.8
	c0.7,1.6,1.8,3.9,3.4,6.5c3.2,5.2,8.3,11.4,15.9,15.9s15.5,6,21.5,6.4c3.1,0.2,5.6,0.1,7.3-0.1c0.9-0.1,1.5-0.2,2-0.2
	c0.2-0.1,0.4-0.1,0.5-0.1l0.1,0c3.1-0.6,6.1,1.2,7.1,4.2l0,0l0,0.1c0,0.1,0.1,0.2,0.1,0.4c0.2,0.4,0.4,1,0.8,1.8
	c0.7,1.6,1.8,3.9,3.4,6.5c3.2,5.2,8.3,11.4,15.9,15.9c7.6,4.5,15.5,6,21.5,6.4c3.1,0.2,5.6,0.1,7.3-0.1c0.9-0.1,1.5-0.2,2-0.2
	c0.2-0.1,0.4-0.1,0.5-0.1l0.1,0c3-0.6,5.9,1.1,7,4l0,0l0,0l0,0l0,0l0,0l0,0l0,0.1c0,0.1,0.1,0.3,0.2,0.5c0.2,0.4,0.5,1.1,0.9,2
	c0.8,1.7,2,4.1,3.6,6.6c3.1,5.1,7.7,10.7,13.4,14.4c5.8,3.2,13.2,1.2,16.6-4.6c3.5-5.9,1.6-13.5-4.3-17L692.9,386.2z M545.1,314.7
	c-0.9-2.9-3.8-4.7-6.8-4.2l0,0L545.1,314.7C545.1,314.7,545.1,314.7,545.1,314.7z M505.9,349.4c-2.3,10.4,2.4,21.2,11.6,26.7
	l97.4,57.8c9.2,5.4,20.8,4.4,28.9-2.6l22.3-19.2c-4-4-7.2-8.3-9.5-12c-1.6-2.6-2.9-5-3.8-6.9c-2.1,0.1-4.8,0.2-7.9,0
	c-7.5-0.5-17.4-2.3-27.2-8.1c-9.7-5.8-16.2-13.7-20.1-20c-1.6-2.6-2.8-4.9-3.7-6.8c-2.1,0.1-4.7,0.2-7.8,0
	c-7.4-0.4-17.4-2.3-27.2-8.1s-16.2-13.7-20.1-20c-1.7-2.6-2.9-5-3.7-6.9c-2.1,0.1-4.8,0.2-7.9,0c-4.4-0.2-9.7-0.9-15.1-2.6
	L505.9,349.4L505.9,349.4z M597.8,289.6l-11.7,7.5c-2.9,1.8-6.7,1-8.6-1.9c-1.9-2.9-1-6.7,1.9-8.6l11.7-7.5c2.9-1.8,6.7-1,8.6,1.9
	S600.7,287.8,597.8,289.6z M664.7,322.9l-1,13.9c-0.2,3.4-3.2,6-6.7,5.8c-3.4-0.2-6-3.2-5.8-6.7l1-13.9c0.2-3.4,3.2-6,6.7-5.8
	C662.4,316.5,664.9,319.5,664.7,322.9z M631.8,306.6l-6.3,10.7c-1.7,2.9-5.6,3.9-8.5,2.2c-2.9-1.7-3.9-5.6-2.2-8.5l6.3-10.7
	c1.7-2.9,5.6-3.9,8.5-2.2C632.6,299.8,633.6,303.7,631.8,306.6z"/>
<path class="st0" d="M404.7-4.1c3.5-5.6,10.9-7.3,16.7-4c35.5,20.2,67.4,28.3,73.9,18c7-11.3-19.2-40.4-58.7-65
	s-77.2-35.5-84.2-24.2c-2.7,4.4-0.4,11.5,5.8,20c3.2,4.3,3.7,10.1,0.9,14.7l-21.4,34.2c-3.5,5.6-1.8,13.1,3.8,16.6
	s13.1,1.8,16.6-3.8l20-32c1.9-3,5.9-3.7,8.7-1.5c2.4,1.9,3.1,5.3,1.5,7.9L377.9-6.6c-3.5,5.6-1.8,13.1,3.8,16.6s13.1,1.8,16.6-3.8
	L404.7-4.1z M406.6-52.5c1.8-2.8,5.5-3.7,8.3-1.9l30.6,19.1c2.8,1.8,3.7,5.5,1.9,8.3c-1.8,2.8-5.5,3.7-8.3,1.9l-30.6-19.1
	C405.7-46,404.9-49.7,406.6-52.5z M339.6-70.9c-4.7,0.8-8.2,2.6-10.1,5.6c-4,6.5,0,17.2,9.9,29.6l9.6-15.3c0,0,0-0.1,0-0.2
	c0-0.2-0.1-0.7-0.4-1.1c-3.5-4.8-6.5-10-8.1-15.2C340.1-68.5,339.8-69.7,339.6-70.9L339.6-70.9z M404.9,17.1
	c41.5,23.8,79.7,32.7,87.9,19.6c1.9-3,2-7,0.6-11.6c-2.2,0.6-4.4,1-6.3,1.1c-6.3,0.5-13.4-0.5-20.7-2.3
	c-14.6-3.6-32.5-11.2-50.9-21.7c-0.2-0.1-0.3-0.1-0.5-0.1c-0.1,0-0.1,0-0.1,0l-6.4,10.2C407.5,14.2,406.2,15.7,404.9,17.1
	L404.9,17.1z M319.6-44.4c-2.7,1-4.8,2.5-6.1,4.6c-4.2,6.7,0.3,17.9,10.9,30.9c0.5-2.7,1.6-5.4,3.2-7.9l5-8.1
	C327.1-31.3,322.5-37.9,319.6-44.4L319.6-44.4z M379.2,36.8c45.1,28.2,88.8,39.6,97.6,25.5c1.3-2.1,1.8-4.6,1.5-7.5
	c-7.2,0.2-15.4-1.1-23.8-3.3c-18.2-4.8-40.2-14.5-62.4-28c-5.6,0.9-11.5-0.1-16.7-3.3c-3.8-2.4-6.7-5.6-8.6-9.3
	c-3.3,4.2-7.8,7-12.7,8.3C361.7,25.2,370.1,31.1,379.2,36.8L379.2,36.8z M460.9,87.7c1.3-2.1,1.8-4.6,1.5-7.5
	c-7.2,0.2-15.4-1.1-23.8-3.3c-19.1-5-42.4-15.5-65.7-30C349.6,32.4,329.9,16.1,317,1.1c-5.6-6.6-10.4-13.3-13.4-19.9
	c-2.7,1-4.7,2.5-6,4.6c-8.8,14.1,20.6,48.3,65.7,76.5S452.1,101.8,460.9,87.7z M444.9,113.3c1.3-2.1,1.8-4.6,1.5-7.5
	c-7.2,0.2-15.4-1.1-23.8-3.3c-19.1-5-42.4-15.5-65.7-30c-23.3-14.5-42.9-30.9-55.8-45.9c-5.6-6.6-10.4-13.3-13.4-19.9
	c-2.7,1-4.7,2.5-6,4.6c-8.8,14.1,20.6,48.3,65.7,76.5S436.1,127.4,444.9,113.3z"/>
<path class="st0" d="M404.7,795.9c3.5-5.6,10.9-7.3,16.7-4c35.5,20.2,67.4,28.3,73.9,18c7-11.3-19.2-40.4-58.7-65
	s-77.2-35.5-84.2-24.2c-2.7,4.4-0.4,11.5,5.8,20c3.2,4.3,3.7,10.1,0.9,14.7l-21.4,34.2c-3.5,5.6-1.8,13.1,3.8,16.6
	s13.1,1.8,16.6-3.8l20-32c1.9-3,5.9-3.7,8.7-1.5c2.4,1.9,3.1,5.3,1.5,7.9l-10.4,16.7c-3.5,5.6-1.8,13.1,3.8,16.6s13.1,1.8,16.6-3.8
	L404.7,795.9z M406.6,747.5c1.8-2.8,5.5-3.7,8.3-1.9l30.6,19.1c2.8,1.8,3.7,5.5,1.9,8.3c-1.8,2.8-5.5,3.7-8.3,1.9l-30.6-19.1
	C405.7,754,404.9,750.3,406.6,747.5z M339.6,729.1c-4.7,0.8-8.2,2.6-10.1,5.6c-4,6.5,0,17.2,9.9,29.6l9.6-15.3c0,0,0-0.1,0-0.2
	c0-0.2-0.1-0.7-0.4-1.1c-3.5-4.8-6.5-10-8.1-15.2C340.1,731.5,339.8,730.3,339.6,729.1L339.6,729.1z M404.9,817.1
	c41.5,23.8,79.7,32.7,87.9,19.6c1.9-3,2-7,0.6-11.6c-2.2,0.6-4.4,1-6.3,1.1c-6.3,0.5-13.4-0.5-20.7-2.3
	c-14.6-3.6-32.5-11.2-50.9-21.7c-0.2-0.1-0.3-0.1-0.5-0.1c-0.1,0-0.1,0-0.1,0l-6.4,10.2C407.5,814.2,406.2,815.7,404.9,817.1
	L404.9,817.1z M319.6,755.6c-2.7,1-4.8,2.5-6.1,4.6c-4.2,6.7,0.3,17.9,10.9,30.9c0.5-2.7,1.6-5.4,3.2-7.9l5-8.1
	C327.1,768.7,322.5,762.1,319.6,755.6L319.6,755.6z M379.2,836.8c45.1,28.2,88.8,39.6,97.6,25.5c1.3-2.1,1.8-4.6,1.5-7.5
	c-7.2,0.2-15.4-1.1-23.8-3.3c-18.2-4.8-40.2-14.5-62.4-28c-5.6,0.9-11.5-0.1-16.7-3.3c-3.8-2.4-6.7-5.6-8.6-9.3
	c-3.3,4.2-7.8,7-12.7,8.3C361.7,825.2,370.1,831.1,379.2,836.8L379.2,836.8z M460.9,887.7c1.3-2.1,1.8-4.6,1.5-7.5
	c-7.2,0.2-15.4-1.1-23.8-3.3c-19.1-5-42.4-15.5-65.7-30c-23.3-14.5-42.9-30.9-55.8-45.9c-5.6-6.6-10.4-13.3-13.4-19.9
	c-2.7,1-4.7,2.5-6,4.6c-8.8,14.1,20.6,48.3,65.7,76.5S452.1,901.8,460.9,887.7z M444.9,913.3c1.3-2.1,1.8-4.6,1.5-7.5
	c-7.2,0.2-15.4-1.1-23.8-3.3c-19.1-5-42.4-15.5-65.7-30c-23.3-14.5-42.9-30.9-55.8-45.9c-5.6-6.6-10.4-13.3-13.4-19.9
	c-2.7,1-4.7,2.5-6,4.6c-8.8,14.1,20.6,48.3,65.7,76.5C392.5,915.9,436.1,927.4,444.9,913.3z"/>
<path class="st0" d="M-86.2,202c-26.7,15-36.9,48-23.8,75.3c0,0.1,0.1,0.1,0.1,0.2l1.6,3l3.1-1.7l0,0l-3.1,1.8l7.3,13.1
	c6.2,11,18.2,17.5,30.8,16.5l28.2-2.2c-0.1,3.2,0,6.4,0.4,9.6l-14.7,8.3l-14.4,0.7c-4,0.2-7,3.6-6.9,7.6c0.2,4,3.6,7,7.6,6.9
	l16.1-0.8c1.1-0.1,2.2-0.4,3.2-0.9l12.9-7.2c0.9,2.2,1.9,4.4,3.1,6.5l2.2,3.8l-6.7,7.4c-0.8,0.8-1.3,1.8-1.6,2.9l-5.5,19.6
	c-1.1,3.8,1.2,7.8,5,8.9s7.8-1.2,8.9-5l5.1-18l8.9-9.8l18.8,5.3l-12.9,14.2c-0.8,0.8-1.3,1.8-1.6,2.9l-5.5,19.6
	c-1.1,3.8,1.2,7.8,5,8.9s7.8-1.2,8.9-5l5.1-18l16.6-18.2l9.6,2.7L16,377.1c-1.2,2.2-1.3,4.9,0,7.1l7,12.6c1.9,3.5,6.4,4.7,9.8,2.8
	c3.5-1.9,4.7-6.4,2.8-9.8l-5-9l10.9-19.1L84,337.7l21.9,0.6l5,9c1.9,3.5,6.4,4.7,9.8,2.8c3.5-1.9,4.7-6.4,2.8-9.8l-7-12.6
	c-1.2-2.2-3.6-3.6-6.1-3.7l-19.2-0.5l2.7-9.6l24.2-4.7l18,5.1c3.8,1.1,7.8-1.2,8.9-5c1.1-3.8-1.2-7.8-5-8.9l-19.6-5.5
	c-1.1-0.3-2.2-0.4-3.3-0.1l-18.8,3.6l5.3-18.8l13-2.5l18,5.1c3.8,1.1,7.8-1.2,8.9-5c1.1-3.8-1.2-7.8-5-8.9l-19.6-5.5
	c-1.1-0.3-2.2-0.4-3.3-0.1l-9.8,1.9l-2.1-3.8c-1.2-2.1-2.5-4.2-3.9-6.1l13-7.3c1-0.6,1.8-1.3,2.5-2.3l9-13.3c2.2-3.3,1.4-7.8-1.9-10
	c-3.3-2.2-7.8-1.4-10,1.9l-8,11.9l-14.7,8.3c-2.5-2-5.2-3.8-8-5.3l16.6-22.9c7.4-10.2,8.2-23.9,2-34.9l-7.3-13.1l-3.1,1.8l0,0
	l3.1-1.7l-1.7-2.9c0,0-0.1-0.1-0.1-0.2l0,0l0,0c-16.4-25.4-49.9-34-76.6-19l-17.6,9.8c-2.8,1.6-2.3,5.7,0.8,6.6l22.5,6.3
	c3.1,0.9,3.6,5,0.8,6.6l-14.4,8.1c-1.7,1-2.4,3.2-1.2,4.8c8.5,11.5,24.5,15.2,37.3,8l31.4-17.6l7.3,13.1c2.1,3.7,1.8,8.2-0.7,11.6
	l-20.8,28.6c-9.3-1.1-19,0.2-28.1,3.9l-10.8-19.2c-1.9-3.5-6.4-4.7-9.8-2.8s-4.7,6.4-2.8,9.8l10.6,18.8l-25.1,14.1l-10.6-18.8
	c-1.9-3.5-6.4-4.7-9.8-2.8s-4.7,6.4-2.8,9.8l10.8,19.2c-7.9,5.8-14,13.5-18,22l-35.3,2.8c-4.2,0.3-8.2-1.8-10.3-5.5l-7.3-13.1
	l31.4-17.6c12.8-7.2,18-22.7,12.6-36c-0.8-1.8-3-2.5-4.7-1.5l-14.4,8.1c-2.8,1.6-6.1-1-5.3-4.1l6.3-22.5c0.9-3.1-2.4-5.7-5.3-4.1
	L-86.2,202L-86.2,202z"/>
<path class="st0" d="M713.8,202c-26.7,15-36.9,48-23.8,75.3c0,0.1,0.1,0.1,0.1,0.2l1.6,3l3.1-1.7l0,0l-3.1,1.8l7.3,13.1
	c6.2,11,18.2,17.5,30.8,16.5l28.2-2.2c-0.1,3.2,0,6.4,0.4,9.6l-14.7,8.3l-14.4,0.7c-4,0.2-7,3.6-6.9,7.6c0.2,4,3.6,7,7.6,6.9
	l16.1-0.8c1.1-0.1,2.2-0.4,3.2-0.9l12.9-7.2c0.9,2.2,1.9,4.4,3.1,6.5l2.2,3.8l-6.7,7.4c-0.8,0.8-1.3,1.8-1.6,2.9l-5.5,19.6
	c-1.1,3.8,1.2,7.8,5,8.9c3.8,1.1,7.8-1.2,8.9-5l5.1-18l8.9-9.8l18.8,5.3l-12.9,14.2c-0.8,0.8-1.3,1.8-1.6,2.9l-5.5,19.6
	c-1.1,3.8,1.2,7.8,5,8.9s7.8-1.2,8.9-5l5.1-18l16.6-18.2l9.6,2.7l-9.5,16.7c-1.2,2.2-1.3,4.9,0,7.1l7,12.6c1.9,3.5,6.4,4.7,9.8,2.8
	c3.5-1.9,4.7-6.4,2.8-9.8l-5-9l10.9-19.1l42.6-23.9l21.9,0.6l5,9c1.9,3.5,6.4,4.7,9.8,2.8c3.5-1.9,4.7-6.4,2.8-9.8l-7-12.6
	c-1.2-2.2-3.6-3.6-6.1-3.7l-19.2-0.5l2.7-9.6l24.2-4.7l18,5.1c3.8,1.1,7.8-1.2,8.9-5c1.1-3.8-1.2-7.8-5-8.9l-19.6-5.5
	c-1.1-0.3-2.2-0.4-3.3-0.1l-18.8,3.6l5.3-18.8l13-2.5l18,5.1c3.8,1.1,7.8-1.2,8.9-5c1.1-3.8-1.2-7.8-5-8.9l-19.6-5.5
	c-1.1-0.3-2.2-0.4-3.3-0.1l-9.8,1.9l-2.1-3.8c-1.2-2.1-2.5-4.2-3.9-6.1l13-7.3c1-0.6,1.8-1.3,2.5-2.3l9-13.3c2.2-3.3,1.4-7.8-1.9-10
	c-3.3-2.2-7.8-1.4-10,1.9l-8,11.9l-14.7,8.3c-2.5-2-5.2-3.8-8-5.3l16.6-22.9c7.4-10.2,8.2-23.9,2-34.9l-7.3-13.1l-3.1,1.8l0,0
	l3.1-1.7l-1.7-2.9c0,0-0.1-0.1-0.1-0.2l0,0l0,0c-16.4-25.4-49.9-34-76.6-19l-17.6,9.8c-2.8,1.6-2.3,5.7,0.8,6.6l22.5,6.3
	c3.1,0.9,3.6,5,0.8,6.6l-14.4,8.1c-1.7,1-2.4,3.2-1.2,4.8c8.5,11.5,24.5,15.2,37.3,8l31.4-17.6l7.3,13.1c2.1,3.7,1.8,8.2-0.7,11.6
	l-20.8,28.6c-9.3-1.1-19,0.2-28.1,3.9l-10.8-19.2c-1.9-3.5-6.4-4.7-9.8-2.8s-4.7,6.4-2.8,9.8l10.6,18.8l-25.1,14.1l-10.6-18.8
	c-1.9-3.5-6.4-4.7-9.8-2.8c-3.5,1.9-4.7,6.4-2.8,9.8l10.8,19.2c-7.9,5.8-14,13.5-18,22l-35.3,2.8c-4.2,0.3-8.2-1.8-10.3-5.5
	l-7.3-13.1l31.4-17.6c12.8-7.2,18-22.7,12.6-36c-0.8-1.8-3-2.5-4.7-1.5l-14.4,8.1c-2.8,1.6-6.1-1-5.3-4.1l6.3-22.5
	c0.9-3.1-2.4-5.7-5.3-4.1L713.8,202L713.8,202z"/>
<path class="st0" d="M571.1,474.9c-2.4,1.6-3.7,4.5-3.1,7.4c0.5,2.9,2.8,5.1,5.6,5.7l3.8,0.8c2.1,0.4,3.9,1.7,5.1,3.5
	c2.4,3.8,1.4,8.7-2.4,11.2l-23.4,15.3c-13.3,8.7-17,26.6-8.3,39.9l0.2,0.3c-1.1,1-2.1,2.2-3.1,3.3l-10.3,13.1
	c-8.9,11.3-9.7,27.1-1.8,39.1c10.1,15.5,30.9,19.8,46.4,9.7l112.7-73.8c15.5-10.1,19.8-30.9,9.7-46.4c-7.9-12.1-22.6-17.7-36.6-14
	l-16.2,4.3c-1.9,0.5-3.7,1.2-5.4,2c-1-2.9-2.4-5.8-4.2-8.6c-14.6-22.4-44.6-28.6-66.9-14L571.1,474.9z M707.9,660.9l-38.3-78.2
	l-51.1,33.5l56.4,66.4L707.9,660.9L707.9,660.9z M583.7,638.8l47,51c7.2,7.7,18.9,9.2,27.7,3.4l4.2-2.8l-56.4-66.4L583.7,638.8z
	 M720,652.9l4.2-2.8c8.9-5.8,12.2-17.1,7.9-26.8l-27.9-63.5l-22.6,14.8L720,652.9z"/>
<path class="st0" d="M558.5,798.6c2.4,1.2,4.2,3.3,5,5.8l3.8,11.3c1.7,5.2-1.4,10.7-4.9,14.9c-1,1.1-1.8,2.4-2.5,3.8
	c-4.7,9.3-0.9,20.6,8.4,25.3c9.3,4.7,20.6,0.9,25.3-8.4c0.9-1.8,3.3-2.6,5.1-1.7c9.3,4.7,20.6,0.9,25.3-8.4
	c4.7-9.3,0.9-20.6-8.4-25.3c-1.4-0.7-2.8-1.2-4.3-1.5c-5.3-1.2-11.1-3.8-12.9-9l-3.8-11.3c-0.8-2.5-0.7-5.3,0.5-7.7l12.5-25
	c0.9-1.8,1.7-3.5,2.3-5.3c1.3-3.5-2-6.8-5.8-6.7c-5.6,0.2-11.4-1-16.8-3.7c-17.4-8.7-24.4-29.8-15.7-47.2c1.1-2.2,2.4-4.3,3.9-6.2
	c2.3-2.9,1.7-7.6-1.9-8.7c-25.1-7.4-52.8,4-65,28.3c-13.7,27.3-2.6,60.5,24.7,74.2L558.5,798.6z"/>
<path class="st0" d="M558.5-1.4c2.4,1.2,4.2,3.3,5,5.8l3.8,11.3c1.7,5.2-1.4,10.7-4.9,14.9c-1,1.1-1.8,2.4-2.5,3.8
	c-4.7,9.3-0.9,20.6,8.4,25.3c9.3,4.7,20.6,0.9,25.3-8.4c0.9-1.8,3.3-2.6,5.1-1.7c9.3,4.7,20.6,0.9,25.3-8.4
	c4.7-9.3,0.9-20.6-8.4-25.3c-1.4-0.7-2.8-1.2-4.3-1.5c-5.3-1.2-11.1-3.8-12.9-9l-3.8-11.3c-0.8-2.5-0.7-5.3,0.5-7.7l12.5-25
	c0.9-1.8,1.7-3.5,2.3-5.3c1.3-3.5-2-6.8-5.8-6.7c-5.6,0.2-11.4-1-16.8-3.7c-17.4-8.7-24.4-29.8-15.7-47.2c1.1-2.2,2.4-4.3,3.9-6.2
	c2.3-2.9,1.7-7.6-1.9-8.7c-25.1-7.4-52.8,4-65,28.3c-13.7,27.3-2.6,60.5,24.7,74.2L558.5-1.4z"/>
</svg>
